<svg xmlns="http://www.w3.org/2000/svg" width="356" height="126" viewBox="0 0 356 126">
    <g fill="none">
        <path fill="#A1D23F" d="M118 100L132.857 100 132.857 102.161 120.323 102.161 120.323 109.332 131.535 109.332 131.535 111.493 120.323 111.493 120.323 118.839 133 118.839 133 121 118 121zM137 105.32h2.355v2.633c1.043-1.541 2.451-2.95 5.111-2.95 2.176-.073 4.181 1.158 5.082 3.12 1.147-1.965 3.28-3.16 5.573-3.12 3.644 0 5.879 2.42 5.879 6.299V121h-2.362v-9.167c0-3.032-1.527-4.728-4.098-4.728-2.392 0-4.352 1.763-4.352 4.853v9.027h-2.354v-9.211c0-2.95-1.565-4.669-4.068-4.669-2.504 0-4.411 2.065-4.411 4.941v8.94H137V105.32zM165 105.335h2.358v3.18c1.291-1.899 3.157-3.515 6.075-3.515 3.798 0 7.567 2.979 7.567 8.191v.06c0 5.168-3.731 8.192-7.567 8.192-2.473.004-4.771-1.27-6.075-3.366V126H165v-20.665zm13.582 7.953v-.06c0-3.723-2.575-6.12-5.582-6.12-1.57.046-3.058.715-4.133 1.858-1.076 1.143-1.65 2.666-1.598 4.233v.06c-.063 1.572.508 3.104 1.585 4.254 1.076 1.15 2.57 1.822 4.146 1.867 3.067 0 5.582-2.234 5.582-6.092M184 105.28h2.404v4.107c1.187-2.62 3.53-4.5 6.596-4.382v2.524h-.19c-3.53 0-6.406 2.465-6.406 7.21V121H184v-15.72zM195 112.995v-.058c0-4.416 3.218-7.937 7.6-7.937 4.696 0 7.399 3.608 7.399 8.089.005.241-.007.482-.038.722h-12.58c.337 3.319 2.763 5.188 5.585 5.188 1.912.018 3.737-.773 4.994-2.165l1.494 1.277c-1.606 1.883-4.017 2.947-6.54 2.887-4.353 0-7.907-3.233-7.907-7.974m12.588-.93c-.247-2.786-1.904-5.218-5.062-5.218-2.762 0-4.845 2.223-5.151 5.217h10.213zM212 118.752l1.172-1.645c1.535 1.216 3.423 1.907 5.385 1.972 1.868 0 3.223-.96 3.223-2.452v-.058c0-1.557-1.839-2.183-3.883-2.721-2.44-.728-5.128-1.521-5.128-4.366v-.058c0-2.663 2.198-4.424 5.297-4.424 1.992.036 3.933.625 5.604 1.703l-1.055 1.731c-1.368-.903-2.965-1.407-4.608-1.455-1.831 0-3.01.953-3.01 2.241 0 1.455 1.926 2.037 4.007 2.663 2.403.728 4.996 1.645 4.996 4.424v.058c0 2.91-2.44 4.635-5.538 4.635-2.34-.037-4.601-.834-6.44-2.27M226 116.186v-.065c0-3.254 2.775-4.993 6.81-4.993 1.657-.016 3.307.208 4.897.662v-.538c0-2.78-1.755-4.214-4.74-4.214-1.68.015-3.335.403-4.837 1.135l-.713-1.885c1.806-.854 3.79-1.294 5.798-1.288 2.25 0 3.967.568 5.144 1.703 1.151 1.23 1.738 2.861 1.628 4.52v9.46h-2.25v-2.35c-1.363 1.74-3.509 2.732-5.76 2.664-2.955 0-5.947-1.645-5.947-4.81m11.707-1.202v-1.455c-1.52-.434-3.096-.654-4.68-.655-3 0-4.65 1.251-4.65 3.195v.058c0 1.943 1.845 3.086 4.005 3.086 2.925 0 5.325-1.74 5.325-4.192M243 118.752l1.172-1.645c1.535 1.216 3.423 1.907 5.385 1.972 1.868 0 3.223-.96 3.223-2.452v-.058c0-1.557-1.839-2.183-3.883-2.721-2.44-.728-5.128-1.521-5.128-4.366v-.058c0-2.663 2.198-4.424 5.304-4.424 1.99.036 3.929.626 5.597 1.703l-1.055 1.731c-1.368-.903-2.965-1.407-4.608-1.455-1.831 0-3.01.953-3.01 2.241 0 1.455 1.926 2.037 4.007 2.663 2.41.728 4.996 1.645 4.996 4.424v.058c0 2.91-2.44 4.635-5.538 4.635-2.344-.026-4.614-.816-6.462-2.248M71 118c-.552 0-1 .448-1 1s.448 1 1 1 1-.448 1-1c-.004-.55-.45-.996-1-1M29 115c-2.21 0-4 1.79-4 4s1.79 4 4 4 4-1.79 4-4c-.004-2.207-1.793-3.996-4-4M87.008 110c-.405-.003-.772.238-.93.612-.157.373-.073.805.212 1.092.285.288.716.375 1.09.22.375-.154.62-.519.62-.924 0-.55-.443-.996-.992-1M78.5 106c-2.485 0-4.5 2.015-4.5 4.5s2.015 4.5 4.5 4.5 4.5-2.015 4.5-4.5-2.015-4.5-4.5-4.5M70.5 108.03c-1.013 0-1.926.608-2.312 1.54-.385.93-.167 2.001.552 2.71.72.709 1.799.916 2.732.524.934-.391 1.537-1.304 1.528-2.311.002-.66-.26-1.295-.73-1.763-.469-.467-1.106-.73-1.77-.73M62.007 109.027c-.812-.003-1.545.483-1.855 1.228-.31.745-.136 1.603.441 2.17.577.568 1.442.732 2.19.417.747-.316 1.228-1.049 1.217-1.855-.018-1.087-.9-1.965-1.993-1.987M46.007 108c-1.22-.003-2.32.734-2.783 1.863-.462 1.129-.195 2.425.676 3.28.871.853 2.173 1.095 3.292.61 1.12-.485 1.834-1.6 1.807-2.819-.04-1.627-1.365-2.927-2.992-2.934M12 107.03c-1.62 0-3.08.974-3.698 2.466-.617 1.491-.27 3.207.878 4.345 1.149 1.138 2.873 1.473 4.367.849 1.494-.624 2.462-2.084 2.453-3.698-.004-2.2-1.791-3.984-4-3.992M95.016 101c-.406-.006-.775.233-.935.606-.16.373-.078.806.206 1.095.285.29.716.378 1.092.224.375-.153.62-.519.621-.925.002-.263-.1-.516-.285-.704-.184-.187-.436-.294-.699-.296M86.5 99c-1.416 0-2.693.854-3.234 2.162-.541 1.31-.24 2.815.762 3.816 1.003 1 2.51 1.297 3.817.753 1.307-.544 2.158-1.823 2.155-3.239-.004-1.93-1.57-3.492-3.5-3.492M62.015 98c-1.619-.006-3.082.964-3.706 2.459-.624 1.494-.286 3.217.857 4.364 1.143 1.147 2.865 1.492 4.361.874C65.024 105.079 66 103.619 66 102c-.004-2.201-1.783-3.987-3.985-4M20.5 98c-2.485 0-4.5 2.015-4.5 4.5s2.015 4.5 4.5 4.5 4.5-2.015 4.5-4.5-2.015-4.5-4.5-4.5M95.508 91c-1.012-.003-1.926.604-2.315 1.538-.39.934-.178 2.01.536 2.727.715.717 1.79.932 2.726.545C97.39 95.424 98 94.512 98 93.5c0-1.378-1.114-2.496-2.492-2.5M79 98c1.618 0 3.077-.975 3.696-2.47.619-1.496.275-3.217-.87-4.36-1.146-1.144-2.867-1.485-4.362-.863-1.494.621-2.467 2.082-2.464 3.7 0 1.06.422 2.077 1.172 2.826.75.75 1.768 1.169 2.828 1.167M70.5 91c-1.38 0-2.5 1.12-2.5 2.5s1.12 2.5 2.5 2.5 2.5-1.12 2.5-2.5c.002-.664-.26-1.3-.73-1.77s-1.106-.732-1.77-.73M21.007 91c-1.657-.004-3.003 1.336-3.007 2.993-.004 1.657 1.336 3.003 2.993 3.007 1.657.004 3.003-1.336 3.007-2.993-.004-1.653-1.34-2.995-2.993-3.007M4.016 93c-.406-.006-.775.233-.935.606-.16.373-.078.806.206 1.095.285.29.716.378 1.092.224.375-.153.62-.519.621-.925.002-.263-.1-.516-.285-.704-.184-.187-.436-.294-.699-.296M95.507 88c1.38-.004 2.497-1.126 2.493-2.507-.004-1.38-1.126-2.497-2.507-2.493-1.38.004-2.497 1.126-2.493 2.507.007 1.379 1.128 2.493 2.507 2.493M86.5 81c-2.485 0-4.5 2.015-4.5 4.5s2.015 4.5 4.5 4.5 4.5-2.015 4.5-4.5-2.015-4.5-4.5-4.5M28.516 89c1.93-.009 3.49-1.58 3.484-3.51-.006-1.931-1.574-3.493-3.505-3.49-1.931.003-3.495 1.569-3.495 3.5 0 .93.37 1.824 1.03 2.48.66.657 1.555 1.024 2.486 1.02M10 86.034c.02 1.1.924 1.98 2.025 1.966 1.1-.014 1.984-.915 1.975-2.016-.009-1.1-.905-1.988-2.006-1.984-.536 0-1.05.215-1.424.598-.375.383-.58.9-.57 1.436M69.993 74c-1.656.004-2.996 1.349-2.993 3.005C67.003 78.66 68.347 80 70.002 80 71.658 79.999 73 78.656 73 77c-.008-1.656-1.351-2.996-3.007-3M21.007 81c2.208-.004 3.996-1.797 3.993-4.005C24.997 74.787 23.206 73 20.998 73 18.789 73.001 17 74.792 17 77c0 1.062.422 2.08 1.174 2.83.752.751 1.771 1.172 2.833 1.17M16 77.508c.003-1.416-.848-2.695-2.155-3.24-1.308-.543-2.814-.246-3.817.754-1.003 1-1.303 2.507-.762 3.816C9.807 80.146 11.084 81 12.5 81c.928.002 1.818-.365 2.474-1.02.657-.655 1.026-1.545 1.026-2.472M87 73c1.618 0 3.077-.975 3.696-2.47.619-1.496.275-3.217-.87-4.36-1.146-1.144-2.867-1.485-4.362-.863-1.494.621-2.467 2.082-2.464 3.7 0 1.06.422 2.077 1.172 2.826.75.75 1.768 1.169 2.828 1.167M76 69.5c0 1.38 1.118 2.499 2.498 2.5 1.38.001 2.5-1.115 2.502-2.495.003-1.38-1.113-2.5-2.492-2.505-1.382 0-2.504 1.118-2.508 2.5M62.507 67c-1.381-.004-2.503 1.113-2.507 2.493-.004 1.381 1.113 2.503 2.493 2.507 1.381.004 2.503-1.113 2.507-2.493 0-1.38-1.114-2.5-2.493-2.507M28.508 67c-1.013-.003-1.927.605-2.316 1.54-.39.935-.176 2.012.54 2.728.716.716 1.793.93 2.728.54.935-.389 1.543-1.303 1.54-2.316-.004-1.374-1.118-2.488-2.492-2.492M4.007 65C1.798 64.996.004 66.784 0 68.993-.004 71.202 1.784 72.996 3.993 73c2.209.004 4.003-1.784 4.007-3.993 0-2.207-1.785-4-3.993-4.007M70.5 57c-1.933 0-3.5 1.567-3.5 3.5s1.567 3.5 3.5 3.5 3.5-1.567 3.5-3.5c-.004-1.931-1.569-3.496-3.5-3.5M54 59c-1.105 0-2 .895-2 2s.895 2 2 2 2-.895 2-2-.895-2-2-2M45.5 56c-2.485 0-4.5 2.015-4.5 4.5s2.015 4.5 4.5 4.5 4.5-2.015 4.5-4.5-2.015-4.5-4.5-4.5M19 61c0 1.105.895 2 2 2s2-.895 2-2-.895-2-2-2-2 .895-2 2M12.007 64c1.657-.004 2.997-1.35 2.993-3.007-.004-1.657-1.35-2.997-3.007-2.993-1.657.004-2.997 1.35-2.993 3.007 0 .797.317 1.56.882 2.122.564.561 1.33.875 2.125.871M80 60.508c.003-.608-.36-1.158-.922-1.392-.561-.234-1.209-.107-1.639.323-.43.43-.557 1.078-.323 1.639.234.561.784.925 1.392.922.82-.009 1.483-.672 1.492-1.492M62.508 49c-1.416-.003-2.695.848-3.24 2.155-.543 1.308-.246 2.814.754 3.817 1 1.003 2.507 1.303 3.816.762C65.146 55.193 66 53.916 66 52.5c0-1.93-1.562-3.496-3.492-3.5M28.508 56c1.933-.004 3.496-1.575 3.492-3.508-.004-1.933-1.575-3.496-3.508-3.492-1.933.004-3.496 1.575-3.492 3.508 0 .929.37 1.82 1.028 2.475.659.655 1.55 1.021 2.48 1.017M86.508 42c-1.012-.003-1.926.604-2.315 1.538-.39.934-.178 2.01.537 2.727.714.717 1.79.932 2.725.545C88.39 46.424 89 45.512 89 44.5c-.004-1.376-1.116-2.492-2.492-2.5M78.508 41c-1.416-.003-2.695.848-3.24 2.155-.543 1.308-.246 2.814.754 3.817 1 1.003 2.507 1.303 3.816.762C81.146 47.193 82 45.916 82 44.5c-.004-1.928-1.564-3.491-3.492-3.5M70.5 41c-1.933 0-3.5 1.567-3.5 3.5s1.567 3.5 3.5 3.5 3.5-1.567 3.5-3.5c-.004-1.931-1.569-3.496-3.5-3.5M27 44.52c.011.826.688 1.487 1.514 1.48.825-.008 1.49-.681 1.486-1.507-.004-.825-.674-1.493-1.5-1.493-.397-.002-.779.155-1.06.435-.282.28-.44.661-.44 1.058M17 44.5c0 1.933 1.567 3.5 3.5 3.5s3.5-1.567 3.5-3.5-1.567-3.5-3.5-3.5-3.5 1.567-3.5 3.5M86.978 33c-1.654.012-2.986 1.36-2.978 3.015.008 1.654 1.353 2.989 3.007 2.985C88.661 38.996 90 37.654 90 36c.002-.795-.312-1.558-.874-2.12-.561-.564-1.324-.88-2.119-.88M30 36c0-.55-.443-.996-.992-1-.405-.003-.772.238-.93.612-.157.373-.073.805.212 1.092.285.288.716.375 1.09.22.375-.154.62-.519.62-.924M12.5 40c2.485 0 4.5-2.015 4.5-4.5S14.985 31 12.5 31 8 33.015 8 35.5s2.015 4.5 4.5 4.5M4.5 38c1.012 0 1.924-.61 2.31-1.545.387-.935.172-2.011-.545-2.725-.716-.715-1.793-.927-2.727-.537-.934.389-1.541 1.303-1.538 2.315 0 .662.264 1.297.733 1.765.469.467 1.105.729 1.767.727M86.5 23c-2.484 0-4.499 2.013-4.5 4.498-.001 2.484 2.01 4.5 4.495 4.502 2.485.003 4.501-2.009 4.505-4.493 0-2.486-2.014-4.503-4.5-4.507M70.5 24c-1.932 0-3.499 1.565-3.5 3.497-.001 1.932 1.563 3.5 3.495 3.503 1.932.003 3.5-1.56 3.505-3.492 0-1.934-1.566-3.504-3.5-3.508M29.008 26c-1.104-.004-2.002.886-2.008 1.99-.006 1.103.884 2.003 1.987 2.01 1.104.007 2.004-.88 2.013-1.984.004-1.106-.886-2.007-1.992-2.016M86.507 22c1.38-.004 2.495-1.125 2.493-2.504-.002-1.38-1.122-2.497-2.502-2.496-1.38.001-2.498 1.12-2.498 2.5.004 1.382 1.125 2.5 2.507 2.5M62.5 15c-2.485 0-4.5 2.015-4.5 4.5s2.015 4.5 4.5 4.5 4.5-2.015 4.5-4.5-2.015-4.5-4.5-4.5M28.508 23c1.932-.004 3.495-1.573 3.492-3.505-.003-1.932-1.57-3.496-3.503-3.495-1.932.001-3.497 1.568-3.497 3.5 0 .93.37 1.821 1.028 2.478.658.656 1.55 1.024 2.48 1.022M23 19.508c.003-1.012-.604-1.926-1.538-2.315-.934-.39-2.01-.178-2.727.537-.717.714-.932 1.79-.545 2.725.386.935 1.298 1.545 2.31 1.545 1.376-.004 2.492-1.116 2.5-2.492M4.016 20c.545-.005.984-.447.984-.992.003-.407-.24-.775-.616-.931-.375-.156-.808-.07-1.094.219-.286.289-.37.722-.21 1.096.16.374.53.614.936.608M79.007 15c2.21-.004 3.997-1.798 3.993-4.007-.004-2.21-1.798-3.997-4.007-3.993-2.21.004-3.997 1.798-3.993 4.007.002 1.061.425 2.078 1.177 2.827.751.748 1.77 1.168 2.83 1.166M46.008 15c2.209-.004 3.996-1.799 3.992-4.008-.004-2.209-1.799-3.996-4.008-3.992-2.209.004-3.996 1.799-3.992 4.008 0 1.061.423 2.079 1.175 2.828.752.75 1.771 1.168 2.833 1.164M20.5 7C18.015 7 16 9.015 16 11.5s2.015 4.5 4.5 4.5 4.5-2.015 4.5-4.5S22.985 7 20.5 7M12.007 14c1.657-.004 2.997-1.35 2.993-3.007-.004-1.657-1.35-2.997-3.007-2.993-1.657.004-2.997 1.35-2.993 3.007 0 .797.317 1.56.882 2.122.564.561 1.33.875 2.125.871M62.007 6c1.657-.004 2.997-1.35 2.993-3.007C64.996 1.336 63.65-.004 61.993 0 60.336.004 58.996 1.35 59 3.007c-.002.797.315 1.562.88 2.124.564.562 1.33.875 2.127.869M37.013 1C35.911.993 35.011 1.878 35 2.98c-.011 1.102.871 2.005 1.973 2.02 1.102.015 2.008-.864 2.027-1.966-.018-1.092-.895-1.975-1.987-2M12.007 6c1.657-.004 2.997-1.35 2.993-3.007C14.996 1.336 13.65-.004 11.993 0 10.336.004 8.996 1.35 9 3.007c0 .797.317 1.56.882 2.122.564.561 1.33.875 2.125.871"/>
        <path fill="#3A0092" d="M117 23h22.678c2.187-.012 4.367.237 6.494.741 2.055.489 3.995 1.369 5.714 2.591 1.688 1.185 3.083 2.737 4.08 4.538 1.084 2.072 1.618 4.386 1.553 6.721.115 2.952-.882 5.84-2.794 8.099-1.955 2.185-4.49 3.776-7.312 4.59v.162c1.762.2 3.474.714 5.053 1.518 1.509.747 2.86 1.774 3.983 3.027 1.117 1.26 1.993 2.713 2.585 4.286.634 1.655.954 3.412.944 5.182.292 5.253-2.341 10.24-6.85 12.977-2.178 1.331-4.576 2.264-7.082 2.754-2.663.545-5.374.818-8.092.814H117V23zm10.366 23.593h9.436c3.468 0 6.056-.669 7.765-2.006 1.682-1.238 2.649-3.218 2.586-5.3 0-2.51-.884-4.375-2.668-5.604-1.783-1.229-4.644-1.799-8.59-1.799h-8.53v14.709zm0 25.546h9.533c1.415-.005 2.83-.089 4.235-.252 1.437-.142 2.84-.527 4.147-1.14 1.237-.593 2.307-1.483 3.113-2.59.896-1.34 1.339-2.93 1.263-4.538 0-3.04-.99-5.167-2.972-6.381-2.006-1.2-5.105-1.807-9.333-1.807h-9.986V72.14zM176.877 64.905c.182 2.639 1.425 5.096 3.453 6.823 2.012 1.643 4.558 2.51 7.167 2.441 2.166.077 4.312-.431 6.207-1.47 1.68-1 3.17-2.282 4.406-3.787l7.085 5.286c-2.034 2.611-4.694 4.68-7.74 6.022-2.84 1.187-5.893 1.792-8.976 1.78-2.865.012-5.709-.486-8.395-1.471-2.536-.919-4.859-2.331-6.832-4.154-1.95-1.823-3.502-4.02-4.562-6.456-2.253-5.391-2.253-11.445 0-16.837 1.066-2.438 2.617-4.638 4.562-6.47 1.976-1.816 4.299-3.224 6.832-4.14 2.686-.988 5.53-1.486 8.395-1.47 2.582-.033 5.144.45 7.532 1.419 2.235.92 4.231 2.324 5.842 4.11 1.701 1.932 2.992 4.182 3.796 6.617.945 2.932 1.4 5.997 1.347 9.073v2.691l-30.12-.007zm20.25-7.353c.076-2.537-.906-4.993-2.716-6.794-1.757-1.654-4.198-2.47-7.323-2.47-2.977 0-5.307.83-7.048 2.507-1.798 1.834-2.913 4.216-3.163 6.757h20.25zM237.278 52.83c-1.696-2.552-4.58-4.056-7.642-3.985-1.334.008-2.646.34-3.821.97-1.21.582-1.95 1.836-1.874 3.177-.057 1.098.552 2.122 1.543 2.596 1.242.62 2.555 1.086 3.91 1.39 1.572.374 3.262.734 5.077 1.176 1.767.396 3.474 1.024 5.077 1.867 1.557.828 2.894 2.015 3.902 3.463 1.029 1.47 1.543 3.463 1.543 6.015.074 2.06-.435 4.1-1.47 5.882-.981 1.572-2.318 2.891-3.901 3.853-1.67 1.01-3.498 1.726-5.409 2.117-1.976.433-3.994.65-6.017.647-2.843.034-5.671-.406-8.37-1.301-2.655-.934-5.011-2.561-6.826-4.713l6.503-6.088c1.172 1.333 2.525 2.496 4.02 3.456 1.588.928 3.407 1.39 5.246 1.33.74-.004 1.479-.083 2.204-.235.743-.164 1.456-.439 2.116-.816.624-.355 1.163-.842 1.58-1.426 1.077-1.648.666-3.853-.933-5-1.214-.725-2.533-1.259-3.91-1.581-1.564-.42-3.262-.787-5.07-1.147-1.762-.333-3.47-.907-5.077-1.706-1.566-.767-2.918-1.908-3.938-3.323-1.029-1.407-1.543-3.368-1.543-5.882-.049-1.97.415-3.918 1.344-5.655.864-1.552 2.07-2.888 3.527-3.904 1.53-1.057 3.237-1.83 5.041-2.28 4.457-1.146 9.155-.934 13.49.611 2.485.854 4.642 2.46 6.173 4.596l-6.495 5.896zM248 49.86v-8.395h8.207V30h9.9v11.465H277v8.396h-10.893v17.298c-.083 1.641.305 3.272 1.12 4.7.745 1.155 2.238 1.737 4.416 1.737.97-.01 1.936-.106 2.887-.291.882-.129 1.725-.45 2.47-.939v8.314c-1.218.544-2.515.89-3.842 1.028-1.326.179-2.662.273-4 .283-2.188.064-4.372-.225-6.468-.856-1.547-.48-2.922-1.396-3.961-2.638-1.016-1.284-1.697-2.799-1.985-4.41-.38-2.008-.56-4.05-.537-6.094V49.861H248zM291.856 64.924c.19 2.64 1.44 5.096 3.469 6.824 2.01 1.633 4.551 2.493 7.153 2.42 2.17.078 4.318-.43 6.216-1.471 1.674-1.008 3.164-2.289 4.407-3.787l7.079 5.287c-2.033 2.616-4.698 4.686-7.75 6.023-2.825 1.182-5.863 1.787-8.932 1.78-2.866.013-5.71-.485-8.397-1.471-5.126-1.828-9.259-5.669-11.418-10.612-2.244-5.395-2.244-11.446 0-16.84 2.144-4.945 6.272-8.786 11.396-10.605 2.685-.99 5.53-1.488 8.397-1.47 2.582-.032 5.144.45 7.533 1.419 2.233.924 4.23 2.328 5.843 4.11 1.7 1.932 2.986 4.184 3.782 6.62.954 2.93 1.414 5.996 1.362 9.074v2.691l-30.14.008zm20.262-7.354c-.06-2.876-.96-5.148-2.717-6.795-1.757-1.647-4.206-2.471-7.325-2.471-2.977 0-5.324.836-7.042 2.508-1.799 1.835-2.919 4.216-3.178 6.758h20.262zM331 19H341V81H331zM351.971 74c1.621-.012 3.089.956 3.717 2.45.628 1.495.291 3.221-.852 4.37-1.143 1.15-2.867 1.496-4.365.876-1.498-.62-2.474-2.082-2.47-3.703-.014-1.06.399-2.08 1.146-2.83.747-.752 1.765-1.17 2.824-1.163zm0 .627c-1.38-.069-2.664.71-3.24 1.966-.577 1.257-.33 2.737.622 3.74.952 1.001 2.418 1.322 3.702.81 1.284-.511 2.127-1.753 2.129-3.136.025-.875-.3-1.724-.903-2.359s-1.435-1.002-2.31-1.021zm-.729 5.69h-.728v-4.452c.414-.069.833-.105 1.253-.109.485-.033.968.084 1.384.335.282.218.436.563.408.918.008.523-.355.978-.867 1.086.394.073.656.43.729 1.085.042.379.137.75.284 1.1h-.729c-.168-.357-.272-.742-.306-1.136-.01-.236-.119-.456-.301-.607-.182-.15-.42-.215-.653-.18h-.495l.021 1.96zm0-2.47h.518c.583 0 1.07-.211 1.07-.729 0-.393-.269-.78-1.07-.78-.172-.018-.346-.018-.518 0v1.509zM62.52 117c-.608-.008-1.161.352-1.4.912-.238.56-.115 1.208.312 1.641.427.434 1.074.566 1.637.335.563-.231.93-.78.931-1.388.004-.822-.658-1.492-1.48-1.5M53.507 117c-.607-.003-1.157.361-1.39.921-.235.56-.108 1.207.32 1.637.428.43 1.074.56 1.635.328.562-.231.928-.779.928-1.386.004-.398-.152-.78-.433-1.062-.28-.282-.662-.44-1.06-.438M45.514 117c-.608-.005-1.16.356-1.396.917-.236.56-.111 1.207.317 1.639.427.432 1.074.562 1.636.331.562-.231.929-.779.929-1.387 0-.823-.663-1.492-1.486-1.5M37.52 117c-.608-.008-1.161.352-1.4.912-.238.56-.115 1.208.312 1.641.427.434 1.074.566 1.637.335.563-.231.93-.78.931-1.388 0-.82-.66-1.489-1.48-1.5M20.514 117c-.608-.005-1.16.356-1.396.917-.236.56-.111 1.207.317 1.639.427.432 1.074.562 1.636.331.562-.231.929-.779.929-1.387 0-.823-.663-1.492-1.486-1.5M12.514 117c-.608-.005-1.16.356-1.396.917-.236.56-.111 1.207.317 1.639.427.432 1.074.562 1.636.331.562-.231.929-.779.929-1.387 0-.823-.663-1.492-1.486-1.5M4.514 117c-.608-.005-1.16.356-1.396.917-.236.56-.111 1.207.317 1.639.427.432 1.074.562 1.636.331.562-.231.929-.779.929-1.387.002-.396-.154-.776-.433-1.058-.278-.281-.657-.44-1.053-.442M53.5 109c-.828 0-1.499.67-1.5 1.498-.001.827.668 1.5 1.495 1.502.828.003 1.501-.666 1.505-1.493.004-.4-.153-.784-.435-1.067-.282-.283-.665-.442-1.065-.44M37.514 109c-.608-.005-1.158.356-1.395.915-.237.56-.113 1.206.313 1.638.427.433 1.072.565 1.634.336.562-.23.931-.775.934-1.382.004-.826-.66-1.5-1.486-1.507M28.507 109c-.829-.004-1.503.665-1.507 1.493-.004.829.665 1.503 1.493 1.507.829.004 1.503-.665 1.507-1.493.002-.398-.154-.78-.435-1.063-.28-.282-.66-.442-1.058-.444M20.507 109c-.829-.004-1.503.665-1.507 1.493-.004.829.665 1.503 1.493 1.507.829.004 1.503-.665 1.507-1.493.002-.398-.154-.78-.435-1.063-.28-.282-.66-.442-1.058-.444M4.507 109c-.829-.004-1.503.665-1.507 1.493-.004.829.665 1.503 1.493 1.507.829.004 1.503-.665 1.507-1.493.002-.398-.154-.78-.435-1.063-.28-.282-.66-.442-1.058-.444M78.507 101c-.607-.003-1.156.36-1.39.921-.235.56-.108 1.207.32 1.637.428.43 1.074.56 1.635.328.562-.231.928-.779.928-1.386 0-.826-.667-1.496-1.493-1.5M70.5 101c-.828 0-1.5.672-1.5 1.5s.672 1.5 1.5 1.5 1.5-.672 1.5-1.5-.672-1.5-1.5-1.5M53.5 101c-.828 0-1.5.672-1.5 1.5s.672 1.5 1.5 1.5 1.5-.672 1.5-1.5c.004-.399-.153-.783-.435-1.065-.282-.282-.666-.439-1.065-.435M45.507 101c-.607-.003-1.156.36-1.39.921-.235.56-.108 1.207.32 1.637.428.43 1.074.56 1.635.328.562-.231.928-.779.928-1.386 0-.826-.667-1.496-1.493-1.5M37.514 101c-.608-.005-1.16.356-1.396.916s-.111 1.208.317 1.64c.427.432 1.074.562 1.636.331.562-.231.929-.779.929-1.387 0-.823-.663-1.492-1.486-1.5M28.507 101c-.607-.003-1.156.36-1.39.921-.235.56-.108 1.207.32 1.637.428.43 1.074.56 1.635.328.562-.231.928-.779.928-1.386.002-.397-.155-.779-.435-1.06-.28-.282-.66-.44-1.058-.44M12.52 101c-.608-.008-1.161.352-1.4.912-.238.56-.115 1.208.312 1.641.427.434 1.074.566 1.637.335.563-.231.93-.78.931-1.388 0-.826-.667-1.496-1.493-1.5M4.507 101c-.607-.003-1.156.36-1.39.921-.235.56-.108 1.207.32 1.637.428.43 1.074.56 1.635.328.562-.231.928-.779.928-1.386.002-.397-.155-.779-.435-1.06-.28-.282-.66-.44-1.058-.44M86.5 92c-.828 0-1.5.672-1.5 1.5s.672 1.5 1.5 1.5 1.5-.672 1.5-1.5c.002-.398-.156-.781-.437-1.063-.282-.281-.665-.439-1.063-.437M28.507 92c-.607-.003-1.156.36-1.39.921-.235.56-.108 1.207.32 1.637.428.43 1.074.56 1.635.328.562-.231.928-.779.928-1.386.002-.397-.155-.779-.435-1.06-.28-.282-.66-.44-1.058-.44M12.52 92c-.608-.008-1.161.352-1.4.912-.238.56-.115 1.208.312 1.641.427.434 1.074.566 1.637.335.563-.231.93-.78.931-1.388.002-.397-.155-.779-.435-1.06-.28-.282-.66-.44-1.058-.44M78.5 84c-.828 0-1.499.67-1.5 1.498-.001.827.668 1.5 1.495 1.502.828.003 1.501-.666 1.505-1.493 0-.83-.67-1.503-1.5-1.507M70.493 84c-.827.004-1.494.676-1.493 1.502.001.827.671 1.497 1.498 1.498.826.001 1.498-.666 1.502-1.493 0-.832-.675-1.507-1.507-1.507M20.5 84c-.828 0-1.499.67-1.5 1.498-.001.827.668 1.5 1.495 1.502.828.003 1.501-.666 1.505-1.493 0-.83-.67-1.503-1.5-1.507M4.5 84c-.828 0-1.499.67-1.5 1.498-.001.827.668 1.5 1.495 1.502.828.003 1.501-.666 1.505-1.493.002-.4-.155-.782-.437-1.065C5.282 84.159 4.9 84 4.5 84M95.514 76c-.609-.005-1.16.357-1.396.918-.237.56-.11 1.209.319 1.64.43.431 1.077.56 1.639.327.562-.233.927-.783.924-1.392 0-.822-.664-1.49-1.486-1.493M86.5 76c-.607 0-1.155.366-1.386.928-.232.56-.103 1.207.328 1.635.43.428 1.077.555 1.637.32.56-.234.924-.783.921-1.39.002-.398-.156-.78-.438-1.06-.282-.28-.664-.437-1.062-.433M78.507 76c-.608-.003-1.158.362-1.391.923-.234.56-.106 1.208.323 1.638.43.43 1.077.557 1.638.323.561-.233.926-.783.923-1.39 0-.825-.669-1.494-1.493-1.494M28.507 76c-.608-.003-1.158.362-1.391.923-.234.56-.106 1.208.323 1.638.43.43 1.077.557 1.638.323.561-.233.926-.783.923-1.39.002-.397-.155-.778-.435-1.059-.28-.28-.662-.437-1.058-.435M4.507 76c-.608-.003-1.158.362-1.391.923-.234.56-.106 1.208.323 1.638.43.43 1.077.557 1.638.323.561-.233.926-.783.923-1.39.002-.397-.155-.778-.435-1.059-.28-.28-.662-.437-1.058-.435M70.5 68c-.828 0-1.5.672-1.5 1.5s.672 1.5 1.5 1.5 1.5-.672 1.5-1.5c.002-.398-.156-.781-.437-1.063-.282-.281-.665-.439-1.063-.437M53.5 68c-.828 0-1.5.672-1.5 1.5s.672 1.5 1.5 1.5 1.5-.672 1.5-1.5c.004-.399-.153-.783-.435-1.065-.282-.282-.666-.439-1.065-.435M45.507 68c-.607-.003-1.156.36-1.39.921-.235.56-.108 1.207.32 1.637.428.43 1.074.56 1.635.328.562-.231.928-.779.928-1.386 0-.826-.667-1.496-1.493-1.5M37.514 68c-.608-.005-1.16.356-1.396.916s-.111 1.208.317 1.64c.427.432 1.074.562 1.636.331.562-.231.929-.779.929-1.387 0-.823-.663-1.492-1.486-1.5M20.507 68c-.607-.003-1.156.36-1.39.921-.235.56-.108 1.207.32 1.637.428.43 1.074.56 1.635.328.562-.231.928-.779.928-1.386.002-.397-.155-.779-.435-1.06-.28-.282-.66-.44-1.058-.44M12.52 68c-.608-.008-1.161.352-1.4.912-.238.56-.115 1.208.312 1.641.427.434 1.074.566 1.637.335.563-.231.93-.78.931-1.388.002-.397-.155-.779-.435-1.06-.28-.282-.66-.44-1.058-.44M62.514 59c-.608-.005-1.158.356-1.395.915-.237.56-.113 1.206.313 1.638.427.433 1.072.565 1.634.336.562-.23.931-.775.934-1.382.004-.826-.66-1.5-1.486-1.507M37.514 59c-.608-.005-1.158.356-1.395.915-.237.56-.113 1.206.313 1.638.427.433 1.072.565 1.634.336.562-.23.931-.775.934-1.382.004-.826-.66-1.5-1.486-1.507M28.507 59c-.829-.004-1.503.665-1.507 1.493-.004.829.665 1.503 1.493 1.507.829.004 1.503-.665 1.507-1.493.002-.398-.154-.78-.435-1.063-.28-.282-.66-.442-1.058-.444M4.507 59c-.829-.004-1.503.665-1.507 1.493-.004.829.665 1.503 1.493 1.507.829.004 1.503-.665 1.507-1.493.002-.398-.154-.78-.435-1.063-.28-.282-.66-.442-1.058-.444M78.507 51c-.607-.003-1.156.36-1.39.921-.235.56-.108 1.207.32 1.637.428.43 1.074.56 1.635.328.562-.231.928-.779.928-1.386 0-.826-.667-1.496-1.493-1.5M70.5 51c-.828 0-1.5.672-1.5 1.5s.672 1.5 1.5 1.5 1.5-.672 1.5-1.5-.672-1.5-1.5-1.5M53.5 51c-.828 0-1.5.672-1.5 1.5s.672 1.5 1.5 1.5 1.5-.672 1.5-1.5-.672-1.5-1.5-1.5M45.507 51c-.607-.003-1.156.36-1.39.921-.235.56-.108 1.207.32 1.637.428.43 1.074.56 1.635.328.562-.231.928-.779.928-1.386 0-.826-.667-1.496-1.493-1.5M37.514 51c-.608-.005-1.16.356-1.396.916s-.111 1.208.317 1.64c.427.432 1.074.562 1.636.331.562-.231.929-.779.929-1.387 0-.823-.663-1.492-1.486-1.5M20.507 51c-.607-.003-1.156.36-1.39.921-.235.56-.108 1.207.32 1.637.428.43 1.074.56 1.635.328.562-.231.928-.779.928-1.386 0-.826-.667-1.496-1.493-1.5M12.52 51c-.608-.008-1.161.352-1.4.912-.238.56-.115 1.208.312 1.641.427.434 1.074.566 1.637.335.563-.231.93-.78.931-1.388 0-.826-.667-1.496-1.493-1.5M4.507 51c-.607-.003-1.156.36-1.39.921-.235.56-.108 1.207.32 1.637.428.43 1.074.56 1.635.328.562-.231.928-.779.928-1.386.002-.397-.155-.779-.435-1.06-.28-.282-.66-.44-1.058-.44M12.514 43c-.827-.007-1.504.655-1.514 1.482-.01.826.65 1.505 1.477 1.518.827.012 1.508-.646 1.523-1.472.005-.4-.148-.786-.427-1.072-.279-.287-.66-.45-1.06-.456M4.5 43c-.825 0-1.495.666-1.5 1.491-.005.825.657 1.499 1.482 1.509.824.01 1.503-.648 1.518-1.472.007-.403-.148-.792-.43-1.079-.282-.287-.668-.45-1.07-.449M78.601 34.003c-.559-.037-1.092.24-1.383.718-.29.479-.29 1.08 0 1.558.291.479.824.755 1.383.718C79.39 36.943 80 36.289 80 35.5c0-.79-.611-1.443-1.399-1.497M70.5 34c-.828 0-1.499.67-1.5 1.498-.001.827.668 1.5 1.495 1.502.828.003 1.501-.666 1.505-1.493.002-.4-.155-.782-.437-1.065C71.282 34.159 70.9 34 70.5 34M20.507 34c-.829-.004-1.503.665-1.507 1.493-.004.829.665 1.503 1.493 1.507.829.004 1.503-.665 1.507-1.493.002-.398-.154-.78-.435-1.063-.28-.282-.66-.442-1.058-.444M78.514 26c-.608-.005-1.158.356-1.395.915-.237.56-.113 1.206.313 1.638.427.433 1.072.565 1.634.336.563-.23.931-.775.934-1.382.004-.826-.66-1.5-1.486-1.507M20.514 26c-.608-.005-1.158.356-1.395.915-.237.56-.113 1.206.313 1.638.427.433 1.072.565 1.634.336.562-.23.931-.775.934-1.382.004-.397-.151-.78-.43-1.062-.28-.283-.66-.443-1.056-.445M12.527 26c-.608-.01-1.163.347-1.404.906-.241.558-.121 1.207.304 1.642.426.436 1.072.57 1.636.342.564-.228.934-.774.937-1.383.004-.397-.151-.78-.43-1.062-.28-.283-.66-.443-1.056-.445M4.514 26c-.608-.005-1.158.356-1.395.915-.237.56-.113 1.206.313 1.638.427.433 1.072.565 1.634.336.562-.23.931-.775.934-1.382.004-.397-.151-.78-.43-1.062-.28-.283-.66-.443-1.056-.445M78.5 18c-.828 0-1.5.672-1.5 1.5s.672 1.5 1.5 1.5 1.5-.672 1.5-1.5-.672-1.5-1.5-1.5M70.493 18c-.827.004-1.496.677-1.493 1.505.003.827.675 1.496 1.502 1.495.828-.001 1.498-.672 1.498-1.5 0-.399-.159-.782-.442-1.063-.283-.282-.666-.439-1.065-.437M53.493 18c-.827.004-1.496.677-1.493 1.505.003.827.675 1.496 1.502 1.495.828-.001 1.498-.672 1.498-1.5.002-.4-.157-.783-.44-1.065-.283-.282-.667-.439-1.067-.435M45.5 18c-.828 0-1.5.672-1.5 1.5s.672 1.5 1.5 1.5 1.5-.672 1.5-1.5-.672-1.5-1.5-1.5M37.507 18c-.607-.003-1.156.36-1.39.921-.235.56-.109 1.207.32 1.637.428.43 1.074.56 1.635.328.562-.231.928-.779.928-1.386 0-.826-.667-1.496-1.493-1.5M12.514 18c-.608-.006-1.16.356-1.396.916s-.111 1.208.316 1.64c.428.432 1.075.562 1.637.331.562-.231.929-.779.929-1.387 0-.828-.672-1.5-1.5-1.5M70.5 10c-.828 0-1.499.67-1.5 1.498-.001.827.668 1.5 1.495 1.502.828.003 1.501-.666 1.505-1.493.002-.4-.155-.782-.437-1.065C71.282 10.159 70.9 10 70.5 10M62.514 10c-.608-.005-1.158.356-1.395.915-.237.56-.113 1.206.313 1.638.427.433 1.072.565 1.634.336.562-.23.931-.775.934-1.382.004-.826-.66-1.5-1.486-1.507M53.5 10c-.828 0-1.499.67-1.5 1.498-.001.827.668 1.5 1.495 1.502.828.003 1.501-.666 1.505-1.493.004-.4-.153-.784-.435-1.067-.282-.283-.665-.442-1.065-.44M37.514 10c-.608-.005-1.158.356-1.395.915-.237.56-.113 1.206.313 1.638.427.433 1.072.565 1.634.336.562-.23.931-.775.934-1.382.004-.826-.66-1.5-1.486-1.507M28.507 10c-.829-.004-1.503.665-1.507 1.493-.004.829.665 1.503 1.493 1.507.829.004 1.503-.665 1.507-1.493.002-.398-.154-.78-.435-1.063-.28-.282-.66-.442-1.058-.444M4.507 10c-.829-.004-1.503.665-1.507 1.493-.004.829.665 1.503 1.493 1.507.829.004 1.503-.665 1.507-1.493.002-.398-.154-.78-.435-1.063-.28-.282-.66-.442-1.058-.444M70.5 1c-.607 0-1.155.366-1.386.928-.232.56-.103 1.207.328 1.635.43.428 1.077.555 1.637.32.56-.234.924-.783.921-1.39 0-.397-.158-.778-.44-1.058-.281-.28-.663-.437-1.06-.435M53.399 1.003C52.61 1.057 52 1.711 52 2.5c0 .79.611 1.443 1.399 1.497.559.037 1.092-.24 1.383-.718.29-.479.29-1.08 0-1.558-.291-.479-.824-.755-1.383-.718M45.507 1c-.608-.003-1.158.362-1.391.923-.234.56-.106 1.208.323 1.638.43.43 1.077.557 1.638.323.561-.233.926-.783.923-1.39C47 1.668 46.331 1 45.507 1M28.507 1c-.608-.003-1.158.362-1.391.923-.234.56-.106 1.208.323 1.638.43.43 1.077.557 1.638.323.561-.233.926-.783.923-1.39.002-.397-.155-.778-.435-1.059-.28-.28-.662-.437-1.058-.435M20.507 1c-.608-.003-1.158.362-1.391.923-.234.56-.106 1.208.323 1.638.43.43 1.077.557 1.638.323.561-.233.926-.783.923-1.39C22 1.668 21.331 1 20.507 1M4.507 1c-.608-.003-1.158.362-1.391.923-.234.56-.106 1.208.323 1.638.43.43 1.077.557 1.638.323.561-.233.926-.783.923-1.39.002-.397-.155-.778-.435-1.059-.28-.28-.662-.437-1.058-.435"/>
    </g>
</svg>
